<svg xmlns="http://www.w3.org/2000/svg" xmlns:xlink="http://www.w3.org/1999/xlink" width="252" zoomAndPan="magnify" viewBox="0 0 189 24.749999" height="33" preserveAspectRatio="xMidYMid meet" version="1.0"><defs><g/><clipPath id="0cabe1b960"><path d="M 0.945312 1.46875 L 55.148438 1.46875 L 55.148438 20 L 0.945312 20 Z M 0.945312 1.46875 " clip-rule="nonzero"/></clipPath></defs><g clip-path="url(#0cabe1b960)"><path fill="#000000" d="M 54.941406 12.78125 C 54.855469 12.851562 54.730469 12.953125 54.566406 13.085938 C 54.480469 13.152344 54.390625 13.222656 54.285156 13.300781 C 54.234375 13.339844 54.183594 13.382812 54.125 13.425781 C 54.070312 13.46875 54.007812 13.511719 53.949219 13.554688 C 53.886719 13.601562 53.824219 13.648438 53.757812 13.695312 C 53.691406 13.742188 53.625 13.792969 53.550781 13.839844 C 53.410156 13.941406 53.257812 14.046875 53.097656 14.15625 C 52.449219 14.582031 51.640625 15.0625 50.683594 15.507812 C 50.199219 15.730469 49.683594 15.945312 49.128906 16.140625 C 48.570312 16.332031 47.980469 16.503906 47.359375 16.652344 C 46.109375 16.945312 44.734375 17.121094 43.265625 17.160156 C 41.800781 17.203125 40.246094 17.109375 38.636719 16.910156 C 37.027344 16.707031 35.367188 16.398438 33.675781 16.03125 C 32.132812 15.695312 30.5625 15.308594 28.980469 14.910156 L 28.980469 13.171875 C 31.773438 12.710938 33.914062 10.28125 33.914062 7.359375 C 33.914062 4.109375 31.269531 1.46875 28.019531 1.46875 C 26.464844 1.46875 24.996094 2.066406 23.886719 3.160156 C 22.777344 4.25 22.152344 5.707031 22.128906 7.257812 C 22.117188 7.789062 22.542969 8.226562 23.074219 8.238281 C 23.601562 8.246094 24.042969 7.820312 24.050781 7.289062 C 24.089844 5.140625 25.867188 3.390625 28.019531 3.390625 C 30.207031 3.390625 31.988281 5.171875 31.988281 7.359375 C 31.988281 9.546875 30.207031 11.328125 28.015625 11.328125 C 27.484375 11.328125 27.054688 11.757812 27.054688 12.289062 C 27.054688 12.308594 27.058594 12.328125 27.058594 12.34375 C 27.058594 12.351562 27.058594 12.359375 27.058594 12.367188 L 27.058594 14.425781 C 25.816406 14.109375 24.570312 13.800781 23.324219 13.515625 C 21.578125 13.121094 19.835938 12.769531 18.101562 12.550781 C 16.375 12.332031 14.675781 12.242188 13.0625 12.316406 C 11.445312 12.386719 9.917969 12.625 8.550781 13.003906 C 8.464844 13.027344 8.382812 13.050781 8.296875 13.074219 C 8.214844 13.101562 8.128906 13.121094 8.046875 13.148438 C 7.882812 13.203125 7.71875 13.257812 7.558594 13.308594 C 7.238281 13.425781 6.925781 13.535156 6.628906 13.667969 C 6.554688 13.699219 6.480469 13.726562 6.410156 13.757812 C 6.335938 13.789062 6.265625 13.824219 6.191406 13.855469 C 6.050781 13.921875 5.910156 13.988281 5.773438 14.054688 C 5.503906 14.195312 5.238281 14.328125 4.992188 14.476562 C 4.496094 14.757812 4.054688 15.066406 3.660156 15.351562 C 3.5625 15.429688 3.46875 15.503906 3.375 15.574219 C 3.328125 15.613281 3.285156 15.648438 3.238281 15.683594 C 3.21875 15.703125 3.195312 15.71875 3.171875 15.738281 C 3.152344 15.753906 3.128906 15.773438 3.109375 15.792969 C 3.023438 15.867188 2.941406 15.9375 2.859375 16.007812 C 2.820312 16.042969 2.78125 16.078125 2.742188 16.113281 C 2.722656 16.128906 2.703125 16.144531 2.683594 16.164062 C 2.667969 16.179688 2.648438 16.199219 2.628906 16.214844 C 2.484375 16.355469 2.347656 16.488281 2.21875 16.613281 C 2.097656 16.746094 1.980469 16.867188 1.875 16.980469 C 1.847656 17.007812 1.824219 17.039062 1.796875 17.066406 C 1.773438 17.09375 1.75 17.121094 1.726562 17.148438 C 1.679688 17.203125 1.632812 17.257812 1.589844 17.308594 C 1.507812 17.410156 1.429688 17.5 1.363281 17.582031 C 1.105469 17.921875 0.972656 18.105469 0.972656 18.105469 C 0.972656 18.105469 1.152344 17.96875 1.488281 17.707031 C 1.574219 17.648438 1.671875 17.578125 1.777344 17.503906 C 1.828125 17.464844 1.882812 17.425781 1.941406 17.386719 C 1.96875 17.367188 1.996094 17.34375 2.027344 17.324219 C 2.058594 17.304688 2.089844 17.285156 2.121094 17.261719 C 2.246094 17.179688 2.382812 17.089844 2.527344 16.996094 C 2.675781 16.90625 2.832031 16.8125 3 16.710938 C 3.019531 16.699219 3.039062 16.6875 3.0625 16.671875 C 3.082031 16.660156 3.105469 16.648438 3.125 16.636719 C 3.167969 16.613281 3.214844 16.589844 3.257812 16.566406 C 3.347656 16.515625 3.4375 16.46875 3.53125 16.417969 C 3.554688 16.402344 3.578125 16.390625 3.601562 16.378906 C 3.625 16.367188 3.648438 16.355469 3.675781 16.34375 C 3.722656 16.316406 3.773438 16.292969 3.820312 16.269531 C 3.921875 16.21875 4.019531 16.167969 4.125 16.117188 C 4.230469 16.070312 4.335938 16.023438 4.445312 15.972656 C 4.554688 15.925781 4.664062 15.871094 4.78125 15.828125 C 4.894531 15.78125 5.011719 15.734375 5.128906 15.6875 C 5.1875 15.664062 5.25 15.640625 5.3125 15.621094 C 5.371094 15.597656 5.433594 15.574219 5.496094 15.554688 C 5.742188 15.460938 6.003906 15.386719 6.269531 15.300781 C 6.402344 15.261719 6.539062 15.226562 6.675781 15.1875 C 6.746094 15.167969 6.8125 15.144531 6.886719 15.128906 C 6.957031 15.113281 7.027344 15.097656 7.097656 15.078125 C 7.382812 15.007812 7.679688 14.953125 7.980469 14.890625 C 8.128906 14.867188 8.285156 14.839844 8.4375 14.816406 C 8.515625 14.800781 8.59375 14.792969 8.671875 14.78125 C 8.75 14.769531 8.832031 14.761719 8.910156 14.75 C 10.183594 14.585938 11.574219 14.542969 13.050781 14.632812 C 14.523438 14.722656 16.074219 14.9375 17.671875 15.25 C 17.871094 15.289062 18.070312 15.332031 18.269531 15.375 C 18.472656 15.414062 18.671875 15.460938 18.875 15.503906 C 19.082031 15.550781 19.285156 15.597656 19.492188 15.644531 C 19.695312 15.691406 19.898438 15.742188 20.101562 15.789062 C 20.308594 15.839844 20.515625 15.890625 20.722656 15.941406 C 20.929688 15.992188 21.140625 16.046875 21.347656 16.101562 C 21.765625 16.207031 22.1875 16.316406 22.609375 16.425781 C 24.300781 16.871094 26.03125 17.347656 27.78125 17.792969 C 29.535156 18.234375 31.308594 18.648438 33.085938 18.976562 C 34.863281 19.304688 36.644531 19.542969 38.390625 19.640625 C 40.136719 19.738281 41.847656 19.695312 43.460938 19.480469 C 44.265625 19.375 45.042969 19.226562 45.785156 19.035156 C 46.527344 18.847656 47.234375 18.621094 47.898438 18.359375 C 48.558594 18.101562 49.171875 17.8125 49.738281 17.503906 C 49.878906 17.425781 50.019531 17.347656 50.15625 17.269531 C 50.222656 17.234375 50.289062 17.191406 50.355469 17.152344 C 50.417969 17.109375 50.484375 17.070312 50.550781 17.03125 C 50.613281 16.988281 50.679688 16.949219 50.742188 16.910156 C 50.804688 16.867188 50.867188 16.828125 50.925781 16.785156 C 50.988281 16.746094 51.046875 16.703125 51.109375 16.664062 C 51.167969 16.621094 51.226562 16.585938 51.285156 16.539062 C 52.210938 15.878906 52.941406 15.214844 53.496094 14.628906 C 53.632812 14.484375 53.761719 14.339844 53.882812 14.210938 C 53.941406 14.144531 53.996094 14.078125 54.050781 14.011719 C 54.105469 13.949219 54.15625 13.886719 54.207031 13.828125 C 54.410156 13.59375 54.566406 13.382812 54.695312 13.210938 C 54.820312 13.039062 54.914062 12.902344 54.976562 12.8125 C 55.035156 12.722656 55.066406 12.671875 55.066406 12.671875 C 55.066406 12.671875 55.023438 12.710938 54.941406 12.78125 " fill-opacity="1" fill-rule="nonzero"/></g><g fill="#000000" fill-opacity="1"><g transform="translate(61.258068, 16.583905)"><g><path d="M 5.109375 -7.328125 C 4.515625 -7.328125 4.050781 -7.082031 3.71875 -6.59375 C 3.382812 -6.101562 3.21875 -5.429688 3.21875 -4.578125 C 3.21875 -2.804688 3.894531 -1.921875 5.25 -1.921875 C 5.65625 -1.921875 6.050781 -1.972656 6.4375 -2.078125 C 6.820312 -2.191406 7.207031 -2.332031 7.59375 -2.5 L 7.59375 -0.390625 C 6.820312 -0.046875 5.953125 0.125 4.984375 0.125 C 3.585938 0.125 2.515625 -0.273438 1.765625 -1.078125 C 1.023438 -1.890625 0.65625 -3.0625 0.65625 -4.59375 C 0.65625 -5.550781 0.832031 -6.390625 1.1875 -7.109375 C 1.550781 -7.835938 2.070312 -8.394531 2.75 -8.78125 C 3.425781 -9.175781 4.222656 -9.375 5.140625 -9.375 C 6.140625 -9.375 7.09375 -9.15625 8 -8.71875 L 7.234375 -6.75 C 6.890625 -6.914062 6.546875 -7.050781 6.203125 -7.15625 C 5.867188 -7.269531 5.503906 -7.328125 5.109375 -7.328125 Z M 5.109375 -7.328125 "/></g></g></g><g fill="#000000" fill-opacity="1"><g transform="translate(69.644876, 16.583905)"><g><path d="M 1 0 L 1 -9.234375 L 3.5 -9.234375 L 3.5 -2.015625 L 7.046875 -2.015625 L 7.046875 0 Z M 1 0 "/></g></g></g><g fill="#000000" fill-opacity="1"><g transform="translate(77.167129, 16.583905)"><g><path d="M 9.640625 -4.625 C 9.640625 -3.070312 9.257812 -1.890625 8.5 -1.078125 C 7.738281 -0.273438 6.625 0.125 5.15625 0.125 C 3.695312 0.125 2.582031 -0.28125 1.8125 -1.09375 C 1.039062 -1.90625 0.65625 -3.085938 0.65625 -4.640625 C 0.65625 -6.179688 1.039062 -7.351562 1.8125 -8.15625 C 2.582031 -8.96875 3.695312 -9.375 5.15625 -9.375 C 6.625 -9.375 7.738281 -8.972656 8.5 -8.171875 C 9.257812 -7.367188 9.640625 -6.1875 9.640625 -4.625 Z M 3.28125 -4.625 C 3.28125 -2.84375 3.90625 -1.953125 5.15625 -1.953125 C 5.78125 -1.953125 6.242188 -2.164062 6.546875 -2.59375 C 6.859375 -3.03125 7.015625 -3.707031 7.015625 -4.625 C 7.015625 -5.550781 6.859375 -6.234375 6.546875 -6.671875 C 6.234375 -7.109375 5.769531 -7.328125 5.15625 -7.328125 C 3.90625 -7.328125 3.28125 -6.425781 3.28125 -4.625 Z M 3.28125 -4.625 "/></g></g></g><g fill="#000000" fill-opacity="1"><g transform="translate(87.466052, 16.583905)"><g><path d="M 5.078125 0 L 2.578125 0 L 2.578125 -7.1875 L 0.328125 -7.1875 L 0.328125 -9.234375 L 7.328125 -9.234375 L 7.328125 -7.1875 L 5.078125 -7.1875 Z M 5.078125 0 "/></g></g></g><g fill="#000000" fill-opacity="1"><g transform="translate(95.101897, 16.583905)"><g><path d="M 8.90625 0 L 6.40625 0 L 6.40625 -3.765625 L 3.5 -3.765625 L 3.5 0 L 1 0 L 1 -9.234375 L 3.5 -9.234375 L 3.5 -5.8125 L 6.40625 -5.8125 L 6.40625 -9.234375 L 8.90625 -9.234375 Z M 8.90625 0 "/></g></g></g><g fill="#000000" fill-opacity="1"><g transform="translate(105.003252, 16.583905)"><g><path d="M 1 0 L 1 -9.234375 L 3.5 -9.234375 L 3.5 0 Z M 1 0 "/></g></g></g><g fill="#000000" fill-opacity="1"><g transform="translate(109.50272, 16.583905)"><g><path d="M 9.796875 0 L 6.515625 0 L 3.140625 -6.5 L 3.09375 -6.5 C 3.164062 -5.476562 3.203125 -4.695312 3.203125 -4.15625 L 3.203125 0 L 1 0 L 1 -9.234375 L 4.25 -9.234375 L 7.625 -2.8125 L 7.65625 -2.8125 C 7.59375 -3.75 7.5625 -4.5 7.5625 -5.0625 L 7.5625 -9.234375 L 9.796875 -9.234375 Z M 9.796875 0 "/></g></g></g><g fill="#000000" fill-opacity="1"><g transform="translate(120.28125, 16.583905)"><g><path d="M 4.703125 -5.40625 L 8.6875 -5.40625 L 8.6875 -0.421875 C 7.601562 -0.0546875 6.414062 0.125 5.125 0.125 C 3.695312 0.125 2.59375 -0.285156 1.8125 -1.109375 C 1.039062 -1.929688 0.65625 -3.109375 0.65625 -4.640625 C 0.65625 -6.128906 1.078125 -7.289062 1.921875 -8.125 C 2.773438 -8.957031 3.972656 -9.375 5.515625 -9.375 C 6.085938 -9.375 6.628906 -9.316406 7.140625 -9.203125 C 7.660156 -9.097656 8.113281 -8.957031 8.5 -8.78125 L 7.71875 -6.828125 C 7.050781 -7.160156 6.316406 -7.328125 5.515625 -7.328125 C 4.785156 -7.328125 4.222656 -7.085938 3.828125 -6.609375 C 3.429688 -6.140625 3.234375 -5.460938 3.234375 -4.578125 C 3.234375 -3.710938 3.410156 -3.050781 3.765625 -2.59375 C 4.128906 -2.144531 4.648438 -1.921875 5.328125 -1.921875 C 5.703125 -1.921875 6.046875 -1.957031 6.359375 -2.03125 L 6.359375 -3.484375 L 4.703125 -3.484375 Z M 4.703125 -5.40625 "/></g></g></g><g fill="#000000" fill-opacity="1"><g transform="translate(129.848143, 16.583905)"><g/></g></g><g fill="#000000" fill-opacity="1"><g transform="translate(133.20539, 16.583905)"><g><path d="M 3.5 -3.359375 L 3.5 0 L 1 0 L 1 -9.234375 L 4.03125 -9.234375 C 6.53125 -9.234375 7.78125 -8.320312 7.78125 -6.5 C 7.78125 -5.4375 7.257812 -4.613281 6.21875 -4.03125 L 8.90625 0 L 6.078125 0 L 4.125 -3.359375 Z M 3.5 -5.234375 L 3.953125 -5.234375 C 4.828125 -5.234375 5.265625 -5.617188 5.265625 -6.390625 C 5.265625 -7.023438 4.835938 -7.34375 3.984375 -7.34375 L 3.5 -7.34375 Z M 3.5 -5.234375 "/></g></g></g><g fill="#000000" fill-opacity="1"><g transform="translate(141.951902, 16.583905)"><g><path d="M 6.484375 0 L 1 0 L 1 -9.234375 L 6.484375 -9.234375 L 6.484375 -7.234375 L 3.5 -7.234375 L 3.5 -5.78125 L 6.265625 -5.78125 L 6.265625 -3.78125 L 3.5 -3.78125 L 3.5 -2.03125 L 6.484375 -2.03125 Z M 6.484375 0 "/></g></g></g><g fill="#000000" fill-opacity="1"><g transform="translate(149.045034, 16.583905)"><g><path d="M 5.109375 -7.328125 C 4.515625 -7.328125 4.050781 -7.082031 3.71875 -6.59375 C 3.382812 -6.101562 3.21875 -5.429688 3.21875 -4.578125 C 3.21875 -2.804688 3.894531 -1.921875 5.25 -1.921875 C 5.65625 -1.921875 6.050781 -1.972656 6.4375 -2.078125 C 6.820312 -2.191406 7.207031 -2.332031 7.59375 -2.5 L 7.59375 -0.390625 C 6.820312 -0.046875 5.953125 0.125 4.984375 0.125 C 3.585938 0.125 2.515625 -0.273438 1.765625 -1.078125 C 1.023438 -1.890625 0.65625 -3.0625 0.65625 -4.59375 C 0.65625 -5.550781 0.832031 -6.390625 1.1875 -7.109375 C 1.550781 -7.835938 2.070312 -8.394531 2.75 -8.78125 C 3.425781 -9.175781 4.222656 -9.375 5.140625 -9.375 C 6.140625 -9.375 7.09375 -9.15625 8 -8.71875 L 7.234375 -6.75 C 6.890625 -6.914062 6.546875 -7.050781 6.203125 -7.15625 C 5.867188 -7.269531 5.503906 -7.328125 5.109375 -7.328125 Z M 5.109375 -7.328125 "/></g></g></g><g fill="#000000" fill-opacity="1"><g transform="translate(157.431841, 16.583905)"><g><path d="M 1 0 L 1 -9.234375 L 3.5 -9.234375 L 3.5 0 Z M 1 0 "/></g></g></g><g fill="#000000" fill-opacity="1"><g transform="translate(161.93131, 16.583905)"><g><path d="M 7.703125 -6.296875 C 7.703125 -5.265625 7.394531 -4.46875 6.78125 -3.90625 C 6.175781 -3.34375 5.3125 -3.0625 4.1875 -3.0625 L 3.5 -3.0625 L 3.5 0 L 1 0 L 1 -9.234375 L 4.1875 -9.234375 C 5.351562 -9.234375 6.226562 -8.976562 6.8125 -8.46875 C 7.40625 -7.957031 7.703125 -7.234375 7.703125 -6.296875 Z M 3.5 -5.09375 L 3.953125 -5.09375 C 4.328125 -5.09375 4.625 -5.195312 4.84375 -5.40625 C 5.0625 -5.625 5.171875 -5.914062 5.171875 -6.28125 C 5.171875 -6.90625 4.828125 -7.21875 4.140625 -7.21875 L 3.5 -7.21875 Z M 3.5 -5.09375 "/></g></g></g><g fill="#000000" fill-opacity="1"><g transform="translate(170.097245, 16.583905)"><g><path d="M 6.484375 0 L 1 0 L 1 -9.234375 L 6.484375 -9.234375 L 6.484375 -7.234375 L 3.5 -7.234375 L 3.5 -5.78125 L 6.265625 -5.78125 L 6.265625 -3.78125 L 3.5 -3.78125 L 3.5 -2.03125 L 6.484375 -2.03125 Z M 6.484375 0 "/></g></g></g></svg>