<svg xmlns="http://www.w3.org/2000/svg" xmlns:xlink="http://www.w3.org/1999/xlink" width="204" zoomAndPan="magnify" viewBox="0 0 153 149.999998" height="200" preserveAspectRatio="xMidYMid meet" version="1.0"><defs><clipPath id="b7ed7e8ac1"><path d="M 0 0 L 152.929688 0 L 152.929688 150 L 0 150 Z M 0 0 " clip-rule="nonzero"/></clipPath><clipPath id="582ac4183c"><path d="M 39 0 L 113.882812 0 C 135.421875 0 152.882812 17.460938 152.882812 39 L 152.882812 111 C 152.882812 132.539062 135.421875 150 113.882812 150 L 39 150 C 17.460938 150 0 132.539062 0 111 L 0 39 C 0 17.460938 17.460938 0 39 0 Z M 39 0 " clip-rule="nonzero"/></clipPath><clipPath id="abd4f0a6a4"><path d="M 12.601562 49.007812 L 140.101562 49.007812 L 140.101562 91.757812 L 12.601562 91.757812 Z M 12.601562 49.007812 " clip-rule="nonzero"/></clipPath></defs><g clip-path="url(#b7ed7e8ac1)"><g clip-path="url(#582ac4183c)"><path fill="#000000" d="M 0 0 L 152.929688 0 L 152.929688 150 L 0 150 Z M 0 0 " fill-opacity="1" fill-rule="nonzero"/></g></g><g clip-path="url(#abd4f0a6a4)"><path fill="#ffffff" d="M 139.925781 75.683594 C 139.730469 75.847656 139.429688 76.089844 139.042969 76.402344 C 138.847656 76.558594 138.632812 76.730469 138.386719 76.914062 C 138.265625 77.007812 138.140625 77.105469 138.007812 77.207031 C 137.875 77.304688 137.734375 77.40625 137.589844 77.511719 C 137.445312 77.617188 137.292969 77.726562 137.140625 77.839844 C 136.984375 77.953125 136.824219 78.074219 136.65625 78.1875 C 136.316406 78.421875 135.960938 78.667969 135.582031 78.925781 C 134.054688 79.9375 132.152344 81.0625 129.890625 82.121094 C 128.753906 82.636719 127.53125 83.148438 126.222656 83.605469 C 124.914062 84.058594 123.519531 84.46875 122.050781 84.8125 C 119.109375 85.503906 115.863281 85.925781 112.402344 86.015625 C 108.941406 86.113281 105.273438 85.894531 101.484375 85.417969 C 97.691406 84.949219 93.773438 84.214844 89.789062 83.351562 C 86.144531 82.5625 82.441406 81.644531 78.714844 80.707031 L 78.714844 76.609375 C 85.300781 75.519531 90.339844 69.789062 90.339844 62.902344 C 90.339844 55.238281 84.109375 49.003906 76.445312 49.003906 C 72.773438 49.003906 69.3125 50.421875 66.699219 52.996094 C 64.085938 55.566406 62.613281 59 62.550781 62.660156 C 62.53125 63.914062 63.527344 64.949219 64.78125 64.96875 C 66.023438 64.992188 67.066406 63.992188 67.089844 62.738281 C 67.175781 57.667969 71.371094 53.542969 76.445312 53.542969 C 81.605469 53.542969 85.804688 57.742188 85.804688 62.902344 C 85.804688 68.058594 81.605469 72.257812 76.4375 72.257812 C 75.183594 72.257812 74.171875 73.273438 74.171875 74.527344 C 74.171875 74.570312 74.175781 74.617188 74.179688 74.660156 C 74.179688 74.675781 74.175781 74.695312 74.175781 74.710938 L 74.175781 79.558594 L 74.179688 79.558594 C 71.25 78.820312 68.308594 78.089844 65.371094 77.417969 C 61.257812 76.484375 57.148438 75.65625 53.058594 75.140625 C 48.984375 74.625 44.976562 74.417969 41.171875 74.589844 C 37.363281 74.753906 33.761719 75.316406 30.535156 76.210938 C 30.335938 76.265625 30.136719 76.324219 29.9375 76.382812 C 29.738281 76.4375 29.539062 76.488281 29.347656 76.558594 C 28.957031 76.683594 28.570312 76.808594 28.191406 76.933594 C 27.4375 77.207031 26.703125 77.46875 26.003906 77.773438 C 25.832031 77.847656 25.65625 77.917969 25.484375 77.992188 C 25.308594 78.0625 25.144531 78.148438 24.972656 78.222656 C 24.636719 78.378906 24.308594 78.535156 23.984375 78.691406 C 23.347656 79.023438 22.722656 79.335938 22.144531 79.683594 C 20.96875 80.347656 19.9375 81.070312 19 81.75 C 18.773438 81.929688 18.550781 82.105469 18.332031 82.277344 C 18.222656 82.363281 18.117188 82.445312 18.007812 82.53125 C 17.957031 82.574219 17.902344 82.617188 17.851562 82.65625 C 17.800781 82.699219 17.75 82.742188 17.699219 82.785156 C 17.5 82.960938 17.304688 83.128906 17.117188 83.296875 C 17.023438 83.378906 16.929688 83.460938 16.835938 83.542969 C 16.792969 83.582031 16.746094 83.621094 16.699219 83.660156 C 16.65625 83.703125 16.613281 83.746094 16.570312 83.789062 C 16.230469 84.117188 15.90625 84.429688 15.601562 84.722656 C 15.3125 85.03125 15.042969 85.320312 14.792969 85.589844 C 14.730469 85.65625 14.667969 85.722656 14.609375 85.789062 C 14.550781 85.851562 14.492188 85.921875 14.4375 85.984375 C 14.328125 86.117188 14.222656 86.238281 14.121094 86.359375 C 13.921875 86.597656 13.742188 86.816406 13.582031 87.007812 C 12.976562 87.804688 12.660156 88.238281 12.660156 88.238281 C 12.660156 88.238281 13.089844 87.917969 13.882812 87.304688 C 14.082031 87.160156 14.308594 87 14.558594 86.824219 C 14.679688 86.734375 14.808594 86.644531 14.945312 86.546875 C 15.011719 86.5 15.078125 86.449219 15.148438 86.402344 C 15.222656 86.355469 15.296875 86.304688 15.371094 86.257812 C 15.667969 86.0625 15.988281 85.851562 16.332031 85.625 C 16.679688 85.414062 17.050781 85.191406 17.441406 84.953125 C 17.488281 84.925781 17.539062 84.894531 17.585938 84.867188 C 17.636719 84.839844 17.691406 84.808594 17.742188 84.78125 C 17.84375 84.726562 17.949219 84.667969 18.054688 84.613281 C 18.261719 84.496094 18.476562 84.378906 18.695312 84.257812 C 18.75 84.230469 18.808594 84.199219 18.863281 84.167969 C 18.917969 84.140625 18.976562 84.109375 19.035156 84.082031 C 19.148438 84.027344 19.265625 83.96875 19.382812 83.910156 C 19.613281 83.792969 19.851562 83.675781 20.097656 83.554688 C 20.34375 83.445312 20.597656 83.332031 20.855469 83.214844 C 21.113281 83.101562 21.371094 82.976562 21.644531 82.871094 C 21.914062 82.765625 22.1875 82.652344 22.46875 82.542969 C 22.605469 82.480469 22.75 82.433594 22.894531 82.378906 C 23.039062 82.328125 23.183594 82.277344 23.332031 82.226562 C 23.910156 82.003906 24.527344 81.828125 25.152344 81.625 C 25.46875 81.535156 25.792969 81.449219 26.117188 81.359375 C 26.277344 81.3125 26.4375 81.261719 26.605469 81.226562 C 26.773438 81.183594 26.941406 81.148438 27.109375 81.105469 C 27.777344 80.9375 28.476562 80.804688 29.1875 80.664062 C 29.542969 80.605469 29.90625 80.542969 30.269531 80.484375 C 30.453125 80.449219 30.636719 80.429688 30.824219 80.402344 C 31.007812 80.378906 31.195312 80.351562 31.382812 80.328125 C 34.382812 79.945312 37.667969 79.84375 41.140625 80.054688 C 44.617188 80.265625 48.273438 80.769531 52.039062 81.511719 C 52.511719 81.601562 52.984375 81.703125 53.457031 81.800781 C 53.929688 81.898438 54.40625 82.007812 54.882812 82.109375 C 55.367188 82.21875 55.851562 82.328125 56.339844 82.4375 C 56.816406 82.554688 57.296875 82.667969 57.777344 82.785156 C 58.261719 82.902344 58.75 83.019531 59.238281 83.140625 C 59.730469 83.261719 60.21875 83.386719 60.710938 83.515625 C 61.695312 83.765625 62.6875 84.023438 63.6875 84.285156 C 67.675781 85.332031 71.753906 86.453125 75.882812 87.5 C 80.019531 88.542969 84.203125 89.523438 88.398438 90.292969 C 92.589844 91.066406 96.785156 91.628906 100.90625 91.863281 C 105.023438 92.097656 109.058594 91.992188 112.855469 91.488281 C 114.753906 91.234375 116.589844 90.882812 118.34375 90.4375 C 120.09375 89.992188 121.761719 89.453125 123.320312 88.84375 C 124.878906 88.230469 126.328125 87.546875 127.664062 86.824219 C 127.996094 86.640625 128.320312 86.453125 128.644531 86.273438 C 128.804688 86.183594 128.960938 86.085938 129.113281 85.992188 C 129.269531 85.894531 129.421875 85.800781 129.574219 85.703125 C 129.726562 85.609375 129.878906 85.515625 130.027344 85.421875 C 130.175781 85.324219 130.320312 85.226562 130.464844 85.132812 C 130.609375 85.035156 130.75 84.9375 130.890625 84.84375 C 131.035156 84.746094 131.175781 84.65625 131.308594 84.550781 C 133.496094 82.988281 135.21875 81.421875 136.523438 80.046875 C 136.847656 79.699219 137.148438 79.367188 137.433594 79.054688 C 137.578125 78.902344 137.707031 78.742188 137.835938 78.59375 C 137.960938 78.441406 138.082031 78.296875 138.199219 78.15625 C 138.679688 77.601562 139.046875 77.101562 139.347656 76.695312 C 139.648438 76.292969 139.863281 75.972656 140.011719 75.757812 C 140.15625 75.542969 140.226562 75.433594 140.226562 75.433594 C 140.226562 75.433594 140.125 75.515625 139.925781 75.683594 " fill-opacity="1" fill-rule="nonzero"/></g></svg>